# xmcd
#
# Track frame offsets:
#	150
#	18961
#	37532
#	58762
#	78032
#	102072
#	121837
#	137959
#	155739
#	173855
#	189483
#	209937
#	228113
#	246119
#	265688
#
# Disc length: 3759 seconds
# Revision: 0
# Processed by: cddbd v1.5.2PL0 Copyright (c) Steve Scherf et al.
# Submitted via: dBpowerAMP V12.0
#
DISCID=be0ead0f
DTITLE=Rob Berry - Blues N Boxes
DYEAR=2015
DGENRE=Blues
TTITLE0=Oh Lordy Lord
TTITLE1=Cut Me Some Slack
TTITLE2=Headache
TTITLE3=So Sorry
TTITLE4=You Made Me A Fool
TTITLE5=Dollar Short
TTITLE6=Howdy Boss Hog
TTITLE7=Short Supply
TTITLE8=Memories
TTITLE9=Dont Lose Out
TTITLE10=Spinning Thru Life
TTITLE11=Roadhouse Blues
TTITLE12=One Bourbon One Scotch
TTITLE13=Blues In Ma Head
TTITLE14=Years Ago
EXTD=
EXTT0=
EXTT1=
EXTT2=
EXTT3=
EXTT4=
EXTT5=
EXTT6=
EXTT7=
EXTT8=
EXTT9=
EXTT10=
EXTT11=
EXTT12=
EXTT13=
EXTT14=
PLAYORDER=
